<svg xmlns="http://www.w3.org/2000/svg" viewBox="0 0 470 120" role="img">
  <g>
  <polygon points="14,26 60,58 106,26 106,40 60,72 14,40" fill="#C9A227"/>
  <polygon points="16,46 42,64 42,100 16,112" fill="#FFFFFF"/>
  <polygon points="104,46 78,64 78,100 104,112" fill="#FFFFFF"/>
  <g stroke="#B0185A" stroke-width="2.6" fill="none" stroke-linecap="round">
    <line x1="60" y1="70" x2="60" y2="79"/><circle cx="60" cy="87" r="8"/>
    <line x1="54.6" y1="92.9" x2="50.2" y2="97.6"/><line x1="65.4" y1="92.9" x2="69.8" y2="97.6"/>
    <circle cx="47.5" cy="102" r="6"/><circle cx="72.5" cy="102" r="6"/>
  </g>
  <g fill="#B0185A">
    <circle cx="60" cy="84.6" r="2.1"/><path d="M56.3 91.4 a3.7 3.7 0 0 1 7.4 0 z"/>
    <circle cx="47.5" cy="100.2" r="1.6"/><path d="M44.8 105.2 a2.7 2.7 0 0 1 5.4 0 z"/>
    <circle cx="72.5" cy="100.2" r="1.6"/><path d="M69.8 105.2 a2.7 2.7 0 0 1 5.4 0 z"/>
  </g></g>
  <text x="140" y="68" font-family="Lora, Georgia, 'Times New Roman', serif" font-weight="600" font-size="46" letter-spacing="1" fill="#FFFFFF">Villela</text>
  <text x="142" y="92" font-family="Inter, 'Segoe UI', Arial, sans-serif" font-weight="600" font-size="19" letter-spacing="7" fill="#B0185A">CRM</text>
</svg>
